<svg xmlns="http://www.w3.org/2000/svg" viewBox="0 0 1080 1920" width="1080" height="1920"><defs>
<radialGradient id="ballFill" cx="0.36" cy="0.32" r="0.72">
  <stop offset="0" stop-color="#FFF6CF"/>
  <stop offset="0.2" stop-color="#F4DC8A"/>
  <stop offset="0.58" stop-color="#C9A13B"/>
  <stop offset="1" stop-color="#6E5214"/>
</radialGradient>
<radialGradient id="ballGlow" cx="0.5" cy="0.5" r="0.5">
  <stop offset="0" stop-color="#F4DC8A" stop-opacity="0.55"/>
  <stop offset="0.45" stop-color="#C9A13B" stop-opacity="0.18"/>
  <stop offset="1" stop-color="#C9A13B" stop-opacity="0"/>
</radialGradient>
<radialGradient id="vignette" cx="0.5" cy="0.5" r="0.75">
  <stop offset="0.55" stop-color="#1D1A15" stop-opacity="0"/>
  <stop offset="1" stop-color="#1D1A15" stop-opacity="0.38"/>
</radialGradient>
<filter id="grain" x="0" y="0" width="100%" height="100%">
  <feTurbulence type="fractalNoise" baseFrequency="1.1" numOctaves="2" seed="7" stitchTiles="stitch"/>
  <feColorMatrix type="matrix" values="0 0 0 0 0.11  0 0 0 0 0.10  0 0 0 0 0.08  0 0 0 0.55 -0.12"/>
</filter>
<filter id="soft" x="-20%" y="-20%" width="140%" height="140%"><feGaussianBlur stdDeviation="13.5"/></filter>
<filter id="softer" x="-30%" y="-30%" width="160%" height="160%"><feGaussianBlur stdDeviation="34.5"/></filter>
<filter id="cloudSoft" x="-20%" y="-40%" width="140%" height="180%"><feGaussianBlur stdDeviation="5.3"/></filter>
<filter id="blurS" x="-10%" y="-10%" width="120%" height="120%"><feGaussianBlur stdDeviation="3"/></filter><linearGradient id="skyDeep" x1="0" y1="0" x2="0" y2="1"><stop offset="0" stop-color="#0F2F8F"/><stop offset="0.45" stop-color="#1846C4"/><stop offset="1" stop-color="#5A83DA"/></linearGradient></defs><rect width="1080" height="1920" fill="url(#skyDeep)"/><g opacity="0.95" filter="url(#cloudSoft)">
<g fill="#AFBBD2"><circle cx="-21.8" cy="229" r="38.6"/><circle cx="23.6" cy="215.4" r="62.2"/><circle cx="53.2" cy="208" r="76.7"/><circle cx="107.9" cy="182.6" r="86.3"/><circle cx="140.4" cy="185.3" r="99.5"/><circle cx="188.3" cy="174.7" r="107.9"/><circle cx="238" cy="161.6" r="98.5"/><circle cx="267.9" cy="182.4" r="105.4"/><circle cx="315" cy="188" r="84.6"/><circle cx="360.7" cy="185.6" r="89"/><circle cx="393.2" cy="210.8" r="77.4"/><circle cx="432.2" cy="218.7" r="69.9"/><circle cx="470.3" cy="224.7" r="50.1"/><rect x="-37.8" y="230.4" width="507.6" height="48.6" rx="24.3"/></g>
<g fill="#EEF0EE"><circle cx="-26.5" cy="220.5" r="37.1"/><circle cx="16.1" cy="201.7" r="59.7"/><circle cx="44" cy="191.1" r="73.7"/><circle cx="97.6" cy="163.6" r="82.8"/><circle cx="128.4" cy="163.4" r="95.5"/><circle cx="175.3" cy="150.9" r="103.6"/><circle cx="226.2" cy="140" r="94.6"/><circle cx="255.3" cy="159.3" r="101.2"/><circle cx="304.8" cy="169.4" r="81.2"/><circle cx="350" cy="166" r="85.4"/><circle cx="383.9" cy="193.8" r="74.3"/><circle cx="423.8" cy="203.3" r="67.1"/><circle cx="464.3" cy="213.6" r="48.1"/><rect x="-43.2" y="208.8" width="518.4" height="54" rx="27"/></g>
<g fill="#FFFFFF" opacity="0.8"><circle cx="76" cy="137.7" r="47.5"/><circle cx="103.6" cy="133.6" r="54.7"/><circle cx="201.6" cy="110.4" r="54.2"/><circle cx="228.9" cy="127.6" r="58"/><circle cx="283.7" cy="144" r="46.5"/><circle cx="327.8" cy="139.3" r="49"/><circle cx="364.5" cy="170.6" r="42.6"/><circle cx="406.4" cy="182.3" r="38.4"/><circle cx="451.8" cy="198.6" r="27.6"/></g>
</g><g opacity="0.9" filter="url(#cloudSoft)">
<g fill="#AFBBD2"><circle cx="663.3" cy="1061.6" r="49.5"/><circle cx="690.7" cy="1049.4" r="69"/><circle cx="750" cy="1018.4" r="87.7"/><circle cx="800.8" cy="1011.8" r="104.4"/><circle cx="837.2" cy="994.7" r="104.7"/><circle cx="899.9" cy="997.4" r="110.2"/><circle cx="925.4" cy="992.4" r="118.9"/><circle cx="974.1" cy="991.7" r="99.2"/><circle cx="1028.3" cy="990.9" r="95.3"/><circle cx="1061.2" cy="1021.2" r="96.6"/><circle cx="1103.7" cy="1032.5" r="84.5"/><circle cx="1165.6" cy="1045" r="78.8"/><circle cx="1202.4" cy="1066.2" r="53.4"/><rect x="638.8" y="1056" width="558.4" height="53.5" rx="26.7"/></g>
<g fill="#EEF0EE"><circle cx="657.3" cy="1050.7" r="47.5"/><circle cx="682.4" cy="1034.2" r="66.3"/><circle cx="739.5" cy="999.1" r="84.2"/><circle cx="788.3" cy="988.8" r="100.2"/><circle cx="824.6" cy="971.6" r="100.5"/><circle cx="886.7" cy="973.1" r="105.7"/><circle cx="911.1" cy="966.2" r="114.1"/><circle cx="962.2" cy="969.9" r="95.2"/><circle cx="1016.9" cy="969.9" r="91.5"/><circle cx="1049.6" cy="1000" r="92.7"/><circle cx="1093.6" cy="1013.9" r="81.1"/><circle cx="1156.2" cy="1027.7" r="75.7"/><circle cx="1196" cy="1054.4" r="51.3"/><rect x="632.9" y="1032.2" width="570.2" height="59.4" rx="29.7"/></g>
<g fill="#FFFFFF" opacity="0.8"><circle cx="665.1" cy="1013.5" r="38"/><circle cx="717.5" cy="972.8" r="48.2"/><circle cx="762.2" cy="957.5" r="57.4"/><circle cx="798.4" cy="940.2" r="57.6"/><circle cx="859.2" cy="940.1" r="60.6"/><circle cx="937.4" cy="940.1" r="54.6"/><circle cx="993.1" cy="941.4" r="52.4"/><circle cx="1025.4" cy="971" r="53.1"/><circle cx="1072.4" cy="988.5" r="46.5"/><circle cx="1182.6" cy="1038.4" r="29.4"/></g>
</g><g opacity="0.95" filter="url(#cloudSoft)">
<g fill="#AFBBD2"><circle cx="-7.4" cy="1584.5" r="76.3"/><circle cx="29.4" cy="1547.1" r="90.4"/><circle cx="119.2" cy="1523.2" r="97.7"/><circle cx="169" cy="1514.3" r="106.8"/><circle cx="238.3" cy="1494.4" r="127.1"/><circle cx="271.9" cy="1483.3" r="126.5"/><circle cx="331.3" cy="1491" r="132.2"/><circle cx="387.7" cy="1482.1" r="128.4"/><circle cx="454.2" cy="1513.7" r="148.2"/><circle cx="503.1" cy="1512.2" r="132.7"/><circle cx="570.1" cy="1530.9" r="115.1"/><circle cx="629.7" cy="1559.2" r="90"/><circle cx="682.3" cy="1557.9" r="53.2"/><rect x="-31.3" y="1574.4" width="710.6" height="68" rx="34"/></g>
<g fill="#EEF0EE"><circle cx="-16.6" cy="1567.8" r="73.2"/><circle cx="18.5" cy="1527.2" r="86.8"/><circle cx="107.5" cy="1501.7" r="93.8"/><circle cx="156.2" cy="1490.8" r="102.5"/><circle cx="223.1" cy="1466.4" r="122"/><circle cx="256.7" cy="1455.5" r="121.5"/><circle cx="315.4" cy="1461.9" r="127"/><circle cx="372.3" cy="1453.8" r="123.3"/><circle cx="436.4" cy="1481.1" r="142.3"/><circle cx="487.2" cy="1483.1" r="127.4"/><circle cx="556.3" cy="1505.6" r="110.5"/><circle cx="618.9" cy="1539.4" r="86.4"/><circle cx="675.9" cy="1546.2" r="51"/><rect x="-38.9" y="1544.2" width="725.8" height="75.6" rx="37.8"/></g>
<g fill="#FFFFFF" opacity="0.8"><circle cx="-35.7" cy="1544.9" r="42"/><circle cx="-4.1" cy="1500.1" r="49.7"/><circle cx="83.1" cy="1472.4" r="53.7"/><circle cx="191.3" cy="1428.3" r="69.9"/><circle cx="282.3" cy="1422.2" r="72.7"/><circle cx="399.4" cy="1436.6" r="81.5"/><circle cx="454" cy="1443.3" r="73"/><circle cx="596.5" cy="1512.4" r="49.5"/></g>
</g><rect width="1080" height="1920" filter="url(#grain)" opacity="0.5"/><rect width="1080" height="1920" fill="url(#vignette)"/></svg>