<svg xmlns="http://www.w3.org/2000/svg" viewBox="0 0 1080 1920" width="1080" height="1920"><defs>
<radialGradient id="ballFill" cx="0.36" cy="0.32" r="0.72">
  <stop offset="0" stop-color="#FFF6CF"/>
  <stop offset="0.2" stop-color="#F4DC8A"/>
  <stop offset="0.58" stop-color="#C9A13B"/>
  <stop offset="1" stop-color="#6E5214"/>
</radialGradient>
<radialGradient id="ballGlow" cx="0.5" cy="0.5" r="0.5">
  <stop offset="0" stop-color="#F4DC8A" stop-opacity="0.55"/>
  <stop offset="0.45" stop-color="#C9A13B" stop-opacity="0.18"/>
  <stop offset="1" stop-color="#C9A13B" stop-opacity="0"/>
</radialGradient>
<radialGradient id="vignette" cx="0.5" cy="0.5" r="0.75">
  <stop offset="0.55" stop-color="#1D1A15" stop-opacity="0"/>
  <stop offset="1" stop-color="#1D1A15" stop-opacity="0.38"/>
</radialGradient>
<filter id="grain" x="0" y="0" width="100%" height="100%">
  <feTurbulence type="fractalNoise" baseFrequency="1.1" numOctaves="2" seed="7" stitchTiles="stitch"/>
  <feColorMatrix type="matrix" values="0 0 0 0 0.11  0 0 0 0 0.10  0 0 0 0 0.08  0 0 0 0.55 -0.12"/>
</filter>
<filter id="soft" x="-20%" y="-20%" width="140%" height="140%"><feGaussianBlur stdDeviation="13.5"/></filter>
<filter id="softer" x="-30%" y="-30%" width="160%" height="160%"><feGaussianBlur stdDeviation="34.5"/></filter>
<filter id="cloudSoft" x="-20%" y="-40%" width="140%" height="180%"><feGaussianBlur stdDeviation="5.3"/></filter>
<filter id="blurS" x="-10%" y="-10%" width="120%" height="120%"><feGaussianBlur stdDeviation="3"/></filter><linearGradient id="skyPale" x1="0" y1="0" x2="0" y2="1"><stop offset="0" stop-color="#6F99DD"/><stop offset="1" stop-color="#D3E3F5"/></linearGradient><linearGradient id="urn" x1="0" y1="0" x2="1" y2="0"><stop offset="0" stop-color="#C77A4E"/><stop offset="1" stop-color="#8E4A2B"/></linearGradient></defs><rect width="1080" height="1920" fill="url(#skyPale)"/>
<g opacity="0.95" filter="url(#cloudSoft)">
<g fill="#AFBBD2"><circle cx="35.3" cy="192.9" r="55.8"/><circle cx="70.3" cy="167" r="59.7"/><circle cx="109.6" cy="164.8" r="78.9"/><circle cx="157.9" cy="158.5" r="93.2"/><circle cx="196.3" cy="151.7" r="102.8"/><circle cx="253.4" cy="127" r="101.2"/><circle cx="274.6" cy="131.3" r="107.1"/><circle cx="324.7" cy="139" r="90.3"/><circle cx="357.3" cy="145.7" r="97.7"/><circle cx="413.5" cy="148.8" r="79.6"/><circle cx="445.9" cy="168.7" r="77.6"/><circle cx="482.2" cy="167.1" r="56.7"/><circle cx="524.3" cy="184.7" r="52"/><rect x="16.2" y="192" width="507.6" height="48.6" rx="24.3"/></g>
<g fill="#EEF0EE"><circle cx="28.6" cy="180.7" r="53.6"/><circle cx="63.1" cy="153.8" r="57.3"/><circle cx="100.1" cy="147.5" r="75.7"/><circle cx="146.7" cy="137.9" r="89.5"/><circle cx="183.9" cy="129" r="98.7"/><circle cx="241.2" cy="104.7" r="97.1"/><circle cx="261.8" cy="107.8" r="102.8"/><circle cx="313.8" cy="119.1" r="86.7"/><circle cx="345.6" cy="124.2" r="93.8"/><circle cx="403.9" cy="131.3" r="76.5"/><circle cx="436.6" cy="151.6" r="74.5"/><circle cx="475.4" cy="154.6" r="54.4"/><circle cx="518.1" cy="173.3" r="50"/><rect x="10.8" y="170.4" width="518.4" height="54" rx="27"/></g>
<g fill="#FFFFFF" opacity="0.8"><circle cx="14.6" cy="163.9" r="30.7"/><circle cx="48.2" cy="135.9" r="32.8"/><circle cx="80.4" cy="123.8" r="43.4"/><circle cx="123.4" cy="110" r="51.3"/><circle cx="235" cy="75.7" r="58.9"/><circle cx="291.2" cy="92.1" r="49.7"/><circle cx="384" cy="107.4" r="43.8"/></g>
</g>
<rect x="618.8" y="576" width="58.3" height="622.1" fill="#5B4028"/>
<circle cx="760.8" cy="453.8" r="80" fill="#4F6B3A"/><circle cx="817.9" cy="580.8" r="114.5" fill="#4F6B3A"/><circle cx="660.9" cy="705.2" r="60.9" fill="#6E8A4A"/><circle cx="313.2" cy="466.3" r="97.4" fill="#4F6B3A"/><circle cx="774" cy="684.7" r="61.6" fill="#6E8A4A"/><circle cx="788" cy="624.4" r="67.1" fill="#4F6B3A"/><circle cx="771.5" cy="382.3" r="85.2" fill="#6E8A4A"/><circle cx="559.7" cy="813.7" r="63.1" fill="#4F6B3A"/><circle cx="557.1" cy="704.3" r="93.9" fill="#6E8A4A"/><circle cx="358.1" cy="525.6" r="107.4" fill="#4F6B3A"/><circle cx="903.9" cy="767" r="93.1" fill="#4F6B3A"/><circle cx="947.6" cy="724.3" r="82.2" fill="#4F6B3A"/><circle cx="418.3" cy="650.2" r="103.7" fill="#4F6B3A"/><circle cx="553.6" cy="612" r="61.4" fill="#6E8A4A"/><circle cx="429.6" cy="412.9" r="92.8" fill="#4F6B3A"/><circle cx="380.1" cy="594.3" r="80.4" fill="#6E8A4A"/><circle cx="513.5" cy="409.8" r="112.4" fill="#4F6B3A"/><circle cx="925.9" cy="477.5" r="95.6" fill="#6E8A4A"/><circle cx="679.5" cy="437.9" r="113.6" fill="#6E8A4A"/><circle cx="828.3" cy="749.6" r="66.9" fill="#6E8A4A"/><circle cx="878.4" cy="671.8" r="73.9" fill="#6E8A4A"/><circle cx="631.5" cy="583.1" r="78.5" fill="#6E8A4A"/><clipPath id="ballClip806x618"><circle cx="805.6" cy="618.4" r="33"/></clipPath><circle cx="805.6" cy="618.4" r="33" fill="url(#ballFill)"/><g clip-path="url(#ballClip806x618)"><path d="M 785.1 592 C 802.3 606.8, 802.3 630, 785.1 644.8" fill="none" stroke="#FFF3CC" stroke-opacity="0.55" stroke-width="2.5" stroke-linecap="round"/><path d="M 826.1 592 C 808.9 606.8, 808.9 630, 826.1 644.8" fill="none" stroke="#FFF3CC" stroke-opacity="0.55" stroke-width="2.5" stroke-linecap="round"/></g><clipPath id="ballClip723x746"><circle cx="723" cy="746.3" r="33"/></clipPath><circle cx="723" cy="746.3" r="33" fill="url(#ballFill)"/><g clip-path="url(#ballClip723x746)"><path d="M 702.5 719.9 C 719.7 734.8, 719.7 757.9, 702.5 772.8" fill="none" stroke="#FFF3CC" stroke-opacity="0.55" stroke-width="2.5" stroke-linecap="round"/><path d="M 743.5 719.9 C 726.3 734.8, 726.3 757.9, 743.5 772.8" fill="none" stroke="#FFF3CC" stroke-opacity="0.55" stroke-width="2.5" stroke-linecap="round"/></g><clipPath id="ballClip548x664"><circle cx="548" cy="664.3" r="33"/></clipPath><circle cx="548" cy="664.3" r="33" fill="url(#ballFill)"/><g clip-path="url(#ballClip548x664)"><path d="M 527.5 637.9 C 544.7 652.8, 544.7 675.9, 527.5 690.8" fill="none" stroke="#FFF3CC" stroke-opacity="0.55" stroke-width="2.5" stroke-linecap="round"/><path d="M 568.5 637.9 C 551.3 652.8, 551.3 675.9, 568.5 690.8" fill="none" stroke="#FFF3CC" stroke-opacity="0.55" stroke-width="2.5" stroke-linecap="round"/></g><clipPath id="ballClip370x585"><circle cx="370.3" cy="584.6" r="33"/></clipPath><circle cx="370.3" cy="584.6" r="33" fill="url(#ballFill)"/><g clip-path="url(#ballClip370x585)"><path d="M 349.8 558.2 C 367 573.1, 367 596.2, 349.8 611.1" fill="none" stroke="#FFF3CC" stroke-opacity="0.55" stroke-width="2.5" stroke-linecap="round"/><path d="M 390.8 558.2 C 373.6 573.1, 373.6 596.2, 390.8 611.1" fill="none" stroke="#FFF3CC" stroke-opacity="0.55" stroke-width="2.5" stroke-linecap="round"/></g><clipPath id="ballClip535x494"><circle cx="534.9" cy="494.3" r="33"/></clipPath><circle cx="534.9" cy="494.3" r="33" fill="url(#ballFill)"/><g clip-path="url(#ballClip535x494)"><path d="M 514.5 467.9 C 531.6 482.7, 531.6 505.9, 514.5 520.7" fill="none" stroke="#FFF3CC" stroke-opacity="0.55" stroke-width="2.5" stroke-linecap="round"/><path d="M 555.4 467.9 C 538.2 482.7, 538.2 505.9, 555.4 520.7" fill="none" stroke="#FFF3CC" stroke-opacity="0.55" stroke-width="2.5" stroke-linecap="round"/></g><clipPath id="ballClip697x402"><circle cx="696.6" cy="401.8" r="33"/></clipPath><circle cx="696.6" cy="401.8" r="33" fill="url(#ballFill)"/><g clip-path="url(#ballClip697x402)"><path d="M 676.1 375.4 C 693.3 390.2, 693.3 413.4, 676.1 428.3" fill="none" stroke="#FFF3CC" stroke-opacity="0.55" stroke-width="2.5" stroke-linecap="round"/><path d="M 717.1 375.4 C 699.9 390.2, 699.9 413.4, 717.1 428.3" fill="none" stroke="#FFF3CC" stroke-opacity="0.55" stroke-width="2.5" stroke-linecap="round"/></g><clipPath id="ballClip798x524"><circle cx="798.3" cy="524" r="33"/></clipPath><circle cx="798.3" cy="524" r="33" fill="url(#ballFill)"/><g clip-path="url(#ballClip798x524)"><path d="M 777.8 497.6 C 795 512.5, 795 535.6, 777.8 550.5" fill="none" stroke="#FFF3CC" stroke-opacity="0.55" stroke-width="2.5" stroke-linecap="round"/><path d="M 818.8 497.6 C 801.6 512.5, 801.6 535.6, 818.8 550.5" fill="none" stroke="#FFF3CC" stroke-opacity="0.55" stroke-width="2.5" stroke-linecap="round"/></g>
<clipPath id="ballClip778x576"><circle cx="777.6" cy="576" r="16.2"/></clipPath><circle cx="777.6" cy="576" r="16.2" fill="url(#ballFill)"/><g clip-path="url(#ballClip778x576)"><path d="M 767.6 563 C 776 570.3, 776 581.7, 767.6 589" fill="none" stroke="#FFF3CC" stroke-opacity="0.55" stroke-width="1.2" stroke-linecap="round"/><path d="M 787.6 563 C 779.2 570.3, 779.2 581.7, 787.6 589" fill="none" stroke="#FFF3CC" stroke-opacity="0.55" stroke-width="1.2" stroke-linecap="round"/></g>
<path d="M 453.6 1178.6 L 842.4 1178.6 C 900.7 1373, 803.5 1586.9, 745.2 1625.8 L 550.8 1625.8 C 492.5 1586.9, 395.3 1373, 453.6 1178.6 Z" fill="url(#urn)"/>
<rect y="1625.8" width="1080" height="1920" fill="#C8B28A"/>
<g><path d="M 178 896.8 C 172 1192.2, 123.6 1524.7, 104.2 1617 Q 298.1 1644.7 492 1617 C 472.6 1524.7, 424.1 1192.2, 418.1 896.8 Q 298.1 859.8 178 896.8 Z" fill="#AFC6E3"/><path d="M 322.1 896.8 C 358.1 1192.2, 395 1524.7, 404.7 1617 L 492 1617 C 472.6 1524.7, 424.1 1192.2, 418.1 896.8 Z" fill="#000" opacity="0.18"/><path d="M 400.1 915.2 Q 455.5 736.1 584.8 527.4" fill="none" stroke="#AFC6E3" stroke-width="48" stroke-linecap="round"/><circle cx="584.8" cy="527.4" r="25.9" fill="#D9B08C"/><path d="M 196 915.2 Q 191.4 1024.2 149.9 1118.4" fill="none" stroke="#AFC6E3" stroke-width="48" stroke-linecap="round"/><circle cx="149.9" cy="1118.4" r="25.9" fill="#D9B08C"/><rect x="277.8" y="831.6" width="40.6" height="74.4" fill="#D9B08C"/><circle cx="298.1" cy="774.9" r="62.8" fill="#D9B08C"/><path d="M 235.3 774.9 A 62.8 62.8 0 0 1 354.6 752.9 Q 298.1 762.3 235.3 800 Z" fill="#6B4A2B"/></g><rect width="1080" height="1920" filter="url(#grain)" opacity="0.5"/><rect width="1080" height="1920" fill="url(#vignette)"/></svg>