<svg xmlns="http://www.w3.org/2000/svg" viewBox="0 0 1600 900" width="1600" height="900"><defs>
<radialGradient id="ballFill" cx="0.36" cy="0.32" r="0.72">
  <stop offset="0" stop-color="#FFF6CF"/>
  <stop offset="0.2" stop-color="#F4DC8A"/>
  <stop offset="0.58" stop-color="#C9A13B"/>
  <stop offset="1" stop-color="#6E5214"/>
</radialGradient>
<radialGradient id="ballGlow" cx="0.5" cy="0.5" r="0.5">
  <stop offset="0" stop-color="#F4DC8A" stop-opacity="0.55"/>
  <stop offset="0.45" stop-color="#C9A13B" stop-opacity="0.18"/>
  <stop offset="1" stop-color="#C9A13B" stop-opacity="0"/>
</radialGradient>
<radialGradient id="vignette" cx="0.5" cy="0.5" r="0.75">
  <stop offset="0.55" stop-color="#1D1A15" stop-opacity="0"/>
  <stop offset="1" stop-color="#1D1A15" stop-opacity="0.38"/>
</radialGradient>
<filter id="grain" x="0" y="0" width="100%" height="100%">
  <feTurbulence type="fractalNoise" baseFrequency="1.4" numOctaves="2" seed="7" stitchTiles="stitch"/>
  <feColorMatrix type="matrix" values="0 0 0 0 0.11  0 0 0 0 0.10  0 0 0 0 0.08  0 0 0 0.55 -0.12"/>
</filter>
<filter id="soft" x="-20%" y="-20%" width="140%" height="140%"><feGaussianBlur stdDeviation="11.3"/></filter>
<filter id="softer" x="-30%" y="-30%" width="160%" height="160%"><feGaussianBlur stdDeviation="28.8"/></filter>
<filter id="cloudSoft" x="-20%" y="-40%" width="140%" height="180%"><feGaussianBlur stdDeviation="4.4"/></filter>
<filter id="blurS" x="-10%" y="-10%" width="120%" height="120%"><feGaussianBlur stdDeviation="2.5"/></filter></defs><g opacity="1" filter="url(#cloudSoft)">
<g fill="#AFBBD2"><circle cx="230.6" cy="531.6" r="112.7"/><circle cx="316.2" cy="495.4" r="162.4"/><circle cx="423.4" cy="451.4" r="154.1"/><circle cx="526.9" cy="403.2" r="199.9"/><circle cx="606.6" cy="403" r="225.4"/><circle cx="705.5" cy="385.4" r="253.1"/><circle cx="835.9" cy="373.5" r="250.4"/><circle cx="901" cy="373.9" r="251.9"/><circle cx="1052.9" cy="387.7" r="220.3"/><circle cx="1130.4" cy="411.9" r="206.1"/><circle cx="1197.7" cy="460.1" r="161.8"/><circle cx="1316.5" cy="477.3" r="156.2"/><circle cx="1380" cy="495" r="101.3"/><rect x="198.4" y="522" width="1203.2" height="115.2" rx="57.6"/></g>
<g fill="#EEF0EE"><circle cx="217" cy="506.8" r="108.2"/><circle cx="296.7" cy="459.7" r="155.9"/><circle cx="404.9" cy="417.5" r="147.9"/><circle cx="502.9" cy="359.2" r="191.9"/><circle cx="579.6" cy="353.5" r="216.3"/><circle cx="675.1" cy="329.7" r="243"/><circle cx="805.9" cy="318.4" r="240.4"/><circle cx="870.8" cy="318.5" r="241.8"/><circle cx="1026.4" cy="339.3" r="211.5"/><circle cx="1105.6" cy="366.6" r="197.9"/><circle cx="1178.3" cy="424.5" r="155.3"/><circle cx="1297.8" cy="442.9" r="149.9"/><circle cx="1367.8" cy="472.8" r="97.2"/><rect x="185.6" y="470.8" width="1228.8" height="128" rx="64"/></g>
<g fill="#FFFFFF" opacity="0.8"><circle cx="256.1" cy="411" r="89.3"/><circle cx="366.4" cy="371.3" r="84.8"/><circle cx="452.9" cy="299.2" r="109.9"/><circle cx="523.2" cy="285.8" r="123.9"/><circle cx="611.8" cy="253.8" r="139.2"/><circle cx="807.8" cy="242.9" r="138.6"/><circle cx="971.4" cy="273.2" r="121.1"/><circle cx="1054.1" cy="304.8" r="113.4"/><circle cx="1342.5" cy="442.4" r="55.7"/></g>
</g></svg>