<svg xmlns="http://www.w3.org/2000/svg" viewBox="0 0 1080 1920" width="1080" height="1920"><defs>
<radialGradient id="ballFill" cx="0.36" cy="0.32" r="0.72">
  <stop offset="0" stop-color="#FFF6CF"/>
  <stop offset="0.2" stop-color="#F4DC8A"/>
  <stop offset="0.58" stop-color="#C9A13B"/>
  <stop offset="1" stop-color="#6E5214"/>
</radialGradient>
<radialGradient id="ballGlow" cx="0.5" cy="0.5" r="0.5">
  <stop offset="0" stop-color="#F4DC8A" stop-opacity="0.55"/>
  <stop offset="0.45" stop-color="#C9A13B" stop-opacity="0.18"/>
  <stop offset="1" stop-color="#C9A13B" stop-opacity="0"/>
</radialGradient>
<radialGradient id="vignette" cx="0.5" cy="0.5" r="0.75">
  <stop offset="0.55" stop-color="#1D1A15" stop-opacity="0"/>
  <stop offset="1" stop-color="#1D1A15" stop-opacity="0.38"/>
</radialGradient>
<filter id="grain" x="0" y="0" width="100%" height="100%">
  <feTurbulence type="fractalNoise" baseFrequency="1.1" numOctaves="2" seed="7" stitchTiles="stitch"/>
  <feColorMatrix type="matrix" values="0 0 0 0 0.11  0 0 0 0 0.10  0 0 0 0 0.08  0 0 0 0.55 -0.12"/>
</filter>
<filter id="soft" x="-20%" y="-20%" width="140%" height="140%"><feGaussianBlur stdDeviation="13.5"/></filter>
<filter id="softer" x="-30%" y="-30%" width="160%" height="160%"><feGaussianBlur stdDeviation="34.5"/></filter>
<filter id="cloudSoft" x="-20%" y="-40%" width="140%" height="180%"><feGaussianBlur stdDeviation="5.3"/></filter>
<filter id="blurS" x="-10%" y="-10%" width="120%" height="120%"><feGaussianBlur stdDeviation="3"/></filter><radialGradient id="parchLight" cx="0.4" cy="0.35" r="0.8"><stop offset="0" stop-color="#F6EFDD" stop-opacity="0.9"/><stop offset="1" stop-color="#D8C8A4" stop-opacity="0.6"/></radialGradient></defs><rect width="1080" height="1920" fill="#ECE3CF"/>
<rect width="1080" height="1920" fill="url(#parchLight)"/>
<path d="M 351 1409.8 q 57.8 0.5 115.6 3" stroke="#B9A57E" stroke-opacity="0.1" stroke-width="2" fill="none"/><path d="M 844.1 685.9 q 39.3 3.4 78.6 -2.4" stroke="#B9A57E" stroke-opacity="0.1" stroke-width="2.7" fill="none"/><path d="M 152.3 1116.1 q 99.6 -1.6 199.2 3.8" stroke="#B9A57E" stroke-opacity="0.1" stroke-width="2.8" fill="none"/><path d="M 138.3 119.4 q 47.7 -5.9 95.5 3.5" stroke="#B9A57E" stroke-opacity="0.1" stroke-width="2.3" fill="none"/><path d="M 251.4 1897.7 q 77.5 -1.8 155.1 -3.6" stroke="#B9A57E" stroke-opacity="0.1" stroke-width="1.2" fill="none"/><path d="M 1037.1 111 q 113.9 -6 227.9 3.9" stroke="#B9A57E" stroke-opacity="0.1" stroke-width="2.9" fill="none"/><path d="M 210.3 1012.6 q 100.2 -5.4 200.4 2.2" stroke="#B9A57E" stroke-opacity="0.2" stroke-width="2.7" fill="none"/><path d="M 1024.7 855.7 q 34.7 2.6 69.4 3.8" stroke="#B9A57E" stroke-opacity="0.2" stroke-width="2.3" fill="none"/><path d="M 35.8 1006.9 q 118.7 4.1 237.3 0.4" stroke="#B9A57E" stroke-opacity="0.1" stroke-width="2.8" fill="none"/><path d="M 482.7 1782.4 q 64.7 -5.8 129.4 3.6" stroke="#B9A57E" stroke-opacity="0.1" stroke-width="1.9" fill="none"/><path d="M 936.8 1534.5 q 126.3 -0.8 252.6 -2.3" stroke="#B9A57E" stroke-opacity="0.1" stroke-width="2.2" fill="none"/><path d="M 1013.1 1369.4 q 49.2 -2.7 98.3 -1.2" stroke="#B9A57E" stroke-opacity="0.1" stroke-width="1.1" fill="none"/><path d="M 897.1 553.1 q 45.1 3.3 90.1 -0.8" stroke="#B9A57E" stroke-opacity="0.1" stroke-width="1.8" fill="none"/><path d="M 513.7 1620 q 133.9 -2.9 267.7 -3.3" stroke="#B9A57E" stroke-opacity="0.2" stroke-width="1" fill="none"/><path d="M 844.5 1409.8 q 96.9 -2.6 193.9 -1.4" stroke="#B9A57E" stroke-opacity="0.1" stroke-width="1.2" fill="none"/><path d="M 791 360.8 q 132.4 1.6 264.7 -3.1" stroke="#B9A57E" stroke-opacity="0.1" stroke-width="2.9" fill="none"/><path d="M 624.4 55.2 q 82.8 2.6 165.6 2.8" stroke="#B9A57E" stroke-opacity="0.1" stroke-width="2" fill="none"/><path d="M 931.7 130.7 q 75.1 -3.3 150.2 0.7" stroke="#B9A57E" stroke-opacity="0.1" stroke-width="2.1" fill="none"/><path d="M 327.7 1000.3 q 50.2 4.9 100.5 0.8" stroke="#B9A57E" stroke-opacity="0.1" stroke-width="1.4" fill="none"/><path d="M 271.3 299 q 115.8 -3.7 231.5 3.8" stroke="#B9A57E" stroke-opacity="0.1" stroke-width="2.6" fill="none"/><path d="M 339.9 619.1 q 106.9 4.9 213.8 -1" stroke="#B9A57E" stroke-opacity="0.1" stroke-width="2.6" fill="none"/><path d="M 364.5 1716 q 73.3 4.8 146.6 3.4" stroke="#B9A57E" stroke-opacity="0.1" stroke-width="2.7" fill="none"/><path d="M 403.9 276.6 q 60.3 -4.3 120.7 -1.5" stroke="#B9A57E" stroke-opacity="0.2" stroke-width="1.5" fill="none"/><path d="M 951.1 541.5 q 39.8 -3.5 79.6 -3.5" stroke="#B9A57E" stroke-opacity="0.1" stroke-width="2.4" fill="none"/><path d="M 852.2 1129 q 67.1 4.3 134.2 -3.5" stroke="#B9A57E" stroke-opacity="0.1" stroke-width="2.4" fill="none"/><path d="M 177.5 1645.5 q 86.5 -3.8 173 -0.8" stroke="#B9A57E" stroke-opacity="0.1" stroke-width="2.8" fill="none"/><path d="M 808.3 1129.8 q 29 2.1 58.1 -3.3" stroke="#B9A57E" stroke-opacity="0.2" stroke-width="1" fill="none"/><path d="M 112.6 496 q 126.7 -4.7 253.4 1.2" stroke="#B9A57E" stroke-opacity="0.1" stroke-width="2" fill="none"/><path d="M 389.9 51 q 82.2 5 164.4 -2.9" stroke="#B9A57E" stroke-opacity="0.1" stroke-width="2.2" fill="none"/><path d="M 49.5 333.8 q 80.2 4 160.3 0.3" stroke="#B9A57E" stroke-opacity="0.1" stroke-width="2.3" fill="none"/><path d="M 740.1 876 q 40.3 -0.5 80.6 -2.7" stroke="#B9A57E" stroke-opacity="0.1" stroke-width="1" fill="none"/><path d="M 916.4 1351.3 q 51.3 -4.2 102.6 -1.1" stroke="#B9A57E" stroke-opacity="0.2" stroke-width="1.8" fill="none"/><path d="M 549.8 831.9 q 100.2 -0.9 200.3 -3.5" stroke="#B9A57E" stroke-opacity="0.1" stroke-width="2.4" fill="none"/><path d="M 517.3 666.2 q 92.6 3.4 185.2 -3.6" stroke="#B9A57E" stroke-opacity="0.2" stroke-width="2.8" fill="none"/><path d="M 396.6 286.4 q 70.5 -5.8 141.1 0" stroke="#B9A57E" stroke-opacity="0.2" stroke-width="1.4" fill="none"/><path d="M 28.5 378.1 q 28 0.7 55.9 -0.3" stroke="#B9A57E" stroke-opacity="0.1" stroke-width="2.5" fill="none"/><path d="M 565.8 440.9 q 113.3 3.2 226.7 -3.2" stroke="#B9A57E" stroke-opacity="0.1" stroke-width="2.3" fill="none"/><path d="M 522.1 144.1 q 62 5.2 124.1 -1.3" stroke="#B9A57E" stroke-opacity="0.1" stroke-width="2.8" fill="none"/><path d="M 453.1 1409.3 q 105.9 -3 211.8 -3.4" stroke="#B9A57E" stroke-opacity="0.2" stroke-width="2.1" fill="none"/><path d="M 928.6 1554.3 q 37.3 3.4 74.7 2.1" stroke="#B9A57E" stroke-opacity="0.1" stroke-width="1.7" fill="none"/><path d="M 592.7 489.6 q 99.2 -2.3 198.5 -2.3" stroke="#B9A57E" stroke-opacity="0.1" stroke-width="1.9" fill="none"/><path d="M 718.5 682.7 q 27.9 -4.9 55.9 -1.7" stroke="#B9A57E" stroke-opacity="0.2" stroke-width="2.6" fill="none"/><path d="M 134.2 1866 q 34.4 -4.4 68.8 2.7" stroke="#B9A57E" stroke-opacity="0.1" stroke-width="1.6" fill="none"/><path d="M 134.9 1176.8 q 88.2 -0.6 176.4 0" stroke="#B9A57E" stroke-opacity="0.1" stroke-width="2.1" fill="none"/><path d="M 839.3 621.4 q 115.2 -0.6 230.4 -3.4" stroke="#B9A57E" stroke-opacity="0.1" stroke-width="2.4" fill="none"/><path d="M 437 595.6 q 52 3.8 104 -3.5" stroke="#B9A57E" stroke-opacity="0.2" stroke-width="1.8" fill="none"/><path d="M 333 1562.9 q 117.9 -3 235.7 -2.4" stroke="#B9A57E" stroke-opacity="0.1" stroke-width="2.2" fill="none"/><path d="M 574.4 676.3 q 115.7 -0.5 231.4 0.6" stroke="#B9A57E" stroke-opacity="0.1" stroke-width="1.3" fill="none"/><path d="M 110.4 1780.6 q 90.3 4.9 180.5 1.3" stroke="#B9A57E" stroke-opacity="0.1" stroke-width="2.5" fill="none"/><path d="M 423.5 1688.9 q 98.3 -1.9 196.6 -1.8" stroke="#B9A57E" stroke-opacity="0.1" stroke-width="2.3" fill="none"/><path d="M 139.6 1687.9 q 37.2 -3.4 74.4 1.8" stroke="#B9A57E" stroke-opacity="0.1" stroke-width="2.1" fill="none"/><path d="M 504.5 116.4 q 63.5 -3.7 127.1 0" stroke="#B9A57E" stroke-opacity="0.1" stroke-width="1.5" fill="none"/><path d="M 719.3 1913.1 q 126.4 1.9 252.9 1.9" stroke="#B9A57E" stroke-opacity="0.1" stroke-width="1.4" fill="none"/><path d="M 200.2 311.2 q 111.9 -1.1 223.9 2.1" stroke="#B9A57E" stroke-opacity="0.2" stroke-width="2.7" fill="none"/><path d="M 555.4 1303.3 q 134.4 -1.6 268.8 -2.4" stroke="#B9A57E" stroke-opacity="0.1" stroke-width="1.6" fill="none"/><path d="M 79.1 1866.7 q 103 3.7 206.1 -3.5" stroke="#B9A57E" stroke-opacity="0.1" stroke-width="1.9" fill="none"/><path d="M 1025.6 59.5 q 109.6 2.9 219.3 1.3" stroke="#B9A57E" stroke-opacity="0.2" stroke-width="1.2" fill="none"/><path d="M 447.9 525.9 q 84.6 -0.5 169.1 -1.1" stroke="#B9A57E" stroke-opacity="0.2" stroke-width="1.2" fill="none"/><path d="M 195.9 1765.9 q 77.7 -6 155.5 -0.9" stroke="#B9A57E" stroke-opacity="0.1" stroke-width="2.3" fill="none"/><path d="M 812.9 198.5 q 100.4 0.5 200.9 1.6" stroke="#B9A57E" stroke-opacity="0.1" stroke-width="1.2" fill="none"/><path d="M 420.1 535.8 q 46.1 0.3 92.3 3.8" stroke="#B9A57E" stroke-opacity="0.1" stroke-width="2.3" fill="none"/><path d="M 35.1 1118.4 q 92.1 0.3 184.2 2.3" stroke="#B9A57E" stroke-opacity="0.2" stroke-width="2.1" fill="none"/><path d="M 574.2 1025.8 q 35.1 3.4 70.3 2.8" stroke="#B9A57E" stroke-opacity="0.2" stroke-width="1.2" fill="none"/><path d="M 847.5 310 q 112.7 5.3 225.3 2.5" stroke="#B9A57E" stroke-opacity="0.1" stroke-width="2" fill="none"/><path d="M 143.2 1642.6 q 132.1 3.3 264.2 -2.4" stroke="#B9A57E" stroke-opacity="0.1" stroke-width="1.3" fill="none"/><path d="M 951.7 10.1 q 105.1 -1.3 210.2 2" stroke="#B9A57E" stroke-opacity="0.1" stroke-width="1.2" fill="none"/><path d="M 724.5 697.6 q 95.6 -5.4 191.2 3.2" stroke="#B9A57E" stroke-opacity="0.1" stroke-width="1.3" fill="none"/><path d="M 817.9 1279.3 q 92.9 2.3 185.8 -2.8" stroke="#B9A57E" stroke-opacity="0.1" stroke-width="1" fill="none"/><path d="M 501.1 1117 q 56.8 0.2 113.6 0.8" stroke="#B9A57E" stroke-opacity="0.1" stroke-width="1.2" fill="none"/><path d="M 530.7 1796.4 q 120.6 2.5 241.2 1.9" stroke="#B9A57E" stroke-opacity="0.1" stroke-width="3" fill="none"/><path d="M 684.9 1307.7 q 126.9 -4.4 253.8 0.9" stroke="#B9A57E" stroke-opacity="0.1" stroke-width="2" fill="none"/><path d="M 831.9 267.2 q 64.8 -5.6 129.6 3.2" stroke="#B9A57E" stroke-opacity="0.1" stroke-width="2" fill="none"/><path d="M 373.6 1658.1 q 99.9 5.7 199.8 -2.5" stroke="#B9A57E" stroke-opacity="0.1" stroke-width="1.3" fill="none"/><path d="M 448.9 982.4 q 104.8 -6 209.6 1.4" stroke="#B9A57E" stroke-opacity="0.1" stroke-width="1.9" fill="none"/><path d="M 259.2 1769.8 q 43.8 2.6 87.5 -3" stroke="#B9A57E" stroke-opacity="0.1" stroke-width="2.5" fill="none"/><path d="M 854.7 547.9 q 84.1 3.9 168.2 2.7" stroke="#B9A57E" stroke-opacity="0.1" stroke-width="2.6" fill="none"/><path d="M 858.4 901.2 q 127.9 6 255.8 -1.7" stroke="#B9A57E" stroke-opacity="0.1" stroke-width="2.3" fill="none"/><path d="M 897.7 306.6 q 120.6 0.9 241.2 1.4" stroke="#B9A57E" stroke-opacity="0.2" stroke-width="1.8" fill="none"/><path d="M 752 38.2 q 84.7 3.2 169.3 0.9" stroke="#B9A57E" stroke-opacity="0.1" stroke-width="1.3" fill="none"/><path d="M 962.8 817.3 q 111.6 2.1 223.3 -2.3" stroke="#B9A57E" stroke-opacity="0.1" stroke-width="2.5" fill="none"/><path d="M 748.8 363.8 q 73.8 -5.6 147.7 -2.4" stroke="#B9A57E" stroke-opacity="0.1" stroke-width="2.5" fill="none"/><path d="M 410.4 1483 q 62.5 2 125 1.3" stroke="#B9A57E" stroke-opacity="0.1" stroke-width="2.7" fill="none"/><path d="M 192.6 746.5 q 110 1.3 219.9 -2.3" stroke="#B9A57E" stroke-opacity="0.1" stroke-width="2.5" fill="none"/><path d="M 258.4 1496 q 30.5 2.5 61 -2.3" stroke="#B9A57E" stroke-opacity="0.2" stroke-width="2.8" fill="none"/><path d="M 15.5 131.9 q 120.7 -5.8 241.5 1.6" stroke="#B9A57E" stroke-opacity="0.2" stroke-width="1" fill="none"/><path d="M 799.4 397.1 q 38 -2.2 76.1 3.3" stroke="#B9A57E" stroke-opacity="0.1" stroke-width="1.7" fill="none"/><path d="M 529.9 1910.1 q 39.3 -0.7 78.7 1.6" stroke="#B9A57E" stroke-opacity="0.2" stroke-width="2" fill="none"/><path d="M 227.2 185.7 q 105.8 -0.8 211.5 -2.9" stroke="#B9A57E" stroke-opacity="0.2" stroke-width="2.8" fill="none"/><path d="M 924.3 342.5 q 32.7 5.5 65.5 0.6" stroke="#B9A57E" stroke-opacity="0.1" stroke-width="2.1" fill="none"/><path d="M 182.4 1715.5 q 45.2 5.3 90.4 -0.6" stroke="#B9A57E" stroke-opacity="0.1" stroke-width="1.4" fill="none"/>
<ellipse cx="540" cy="652.8" rx="453.6" ry="537.6" fill="#FFF7E2" opacity="0.35" filter="url(#softer)"/>
<path d="M -21.6 521.7 C 113.4 558.5, 248.4 565.3, 248.4 576.2 L 248.4 690.5 C 248.4 701.4, 113.4 715, -21.6 698.6 Z" fill="#4E3524"/>
<path d="M 248.4 589.8 C 302.8 584.4, 446 592.5, 491.4 626.6 C 507.6 644.2, 472 674.2, 431.8 674.2 L 248.4 676.9 Z" fill="#B98A63"/>
<path d="M 452.2 649.7 q 25.9 -6.8 58.3 -2.7" stroke="#000" stroke-opacity="0.15" stroke-width="4.1" fill="none" stroke-linecap="round"/>
<rect x="226.6" y="565.3" width="21.8" height="136.1" fill="#EFE6D2" opacity="0.85"/>
<path d="M 1101.6 659.5 C 966.6 636.3, 831.6 643.1, 831.6 654 L 831.6 768.3 C 831.6 779.2, 966.6 792.8, 1101.6 836.4 Z" fill="#2E4E9E"/>
<path d="M 831.6 667.6 C 777.2 662.1, 634 670.3, 588.6 704.3 C 572.4 722, 608 751.9, 648.2 751.9 L 831.6 754.7 Z" fill="#E2BD97"/>
<path d="M 627.8 727.4 q -25.9 -6.8 -58.3 -2.7" stroke="#000" stroke-opacity="0.15" stroke-width="4.1" fill="none" stroke-linecap="round"/>
<rect x="831.6" y="643.1" width="21.8" height="136.1" fill="#EFE6D2" opacity="0.85"/>
<circle cx="540" cy="652.8" r="207.4" fill="url(#ballGlow)"/><clipPath id="ballClip540x653"><circle cx="540" cy="652.8" r="64.8"/></clipPath><circle cx="540" cy="652.8" r="64.8" fill="url(#ballFill)"/><g clip-path="url(#ballClip540x653)"><path d="M 499.8 601 C 533.5 630.1, 533.5 675.5, 499.8 704.6" fill="none" stroke="#FFF3CC" stroke-opacity="0.55" stroke-width="4.9" stroke-linecap="round"/><path d="M 580.2 601 C 546.5 630.1, 546.5 675.5, 580.2 704.6" fill="none" stroke="#FFF3CC" stroke-opacity="0.55" stroke-width="4.9" stroke-linecap="round"/></g><rect width="1080" height="1920" filter="url(#grain)" opacity="0.5"/><rect width="1080" height="1920" fill="url(#vignette)"/></svg>